<svg xmlns="http://www.w3.org/2000/svg">
    <symbol id='sort' viewBox="0 0 22 19" fill="none">
        <path
            d="M12.125 9.125V17.75C12.125 18.0484 12.0065 18.3345 11.7955 18.5455C11.5845 18.7565 11.2984 18.875 11 18.875C10.7016 18.875 10.4155 18.7565 10.2045 18.5455C9.99353 18.3345 9.875 18.0484 9.875 17.75V9.125C9.875 8.82663 9.99353 8.54048 10.2045 8.3295C10.4155 8.11853 10.7016 8 11 8C11.2984 8 11.5845 8.11853 11.7955 8.3295C12.0065 8.54048 12.125 8.82663 12.125 9.125ZM17.75 15.5C17.4516 15.5 17.1655 15.6185 16.9545 15.8295C16.7435 16.0405 16.625 16.3266 16.625 16.625V17.75C16.625 18.0484 16.7435 18.3345 16.9545 18.5455C17.1655 18.7565 17.4516 18.875 17.75 18.875C18.0484 18.875 18.3345 18.7565 18.5455 18.5455C18.7565 18.3345 18.875 18.0484 18.875 17.75V16.625C18.875 16.3266 18.7565 16.0405 18.5455 15.8295C18.3345 15.6185 18.0484 15.5 17.75 15.5ZM20 11.75H18.875V1.25C18.875 0.951631 18.7565 0.665483 18.5455 0.454505C18.3345 0.243526 18.0484 0.125 17.75 0.125C17.4516 0.125 17.1655 0.243526 16.9545 0.454505C16.7435 0.665483 16.625 0.951631 16.625 1.25V11.75H15.5C15.2016 11.75 14.9155 11.8685 14.7045 12.0795C14.4935 12.2905 14.375 12.5766 14.375 12.875C14.375 13.1734 14.4935 13.4595 14.7045 13.6705C14.9155 13.8815 15.2016 14 15.5 14H20C20.2984 14 20.5845 13.8815 20.7955 13.6705C21.0065 13.4595 21.125 13.1734 21.125 12.875C21.125 12.5766 21.0065 12.2905 20.7955 12.0795C20.5845 11.8685 20.2984 11.75 20 11.75ZM4.25 12.5C3.95163 12.5 3.66548 12.6185 3.4545 12.8295C3.24353 13.0405 3.125 13.3266 3.125 13.625V17.75C3.125 18.0484 3.24353 18.3345 3.4545 18.5455C3.66548 18.7565 3.95163 18.875 4.25 18.875C4.54837 18.875 4.83452 18.7565 5.0455 18.5455C5.25647 18.3345 5.375 18.0484 5.375 17.75V13.625C5.375 13.3266 5.25647 13.0405 5.0455 12.8295C4.83452 12.6185 4.54837 12.5 4.25 12.5ZM6.5 8.75H5.375V1.25C5.375 0.951631 5.25647 0.665483 5.0455 0.454505C4.83452 0.243526 4.54837 0.125 4.25 0.125C3.95163 0.125 3.66548 0.243526 3.4545 0.454505C3.24353 0.665483 3.125 0.951631 3.125 1.25V8.75H2C1.70163 8.75 1.41548 8.86853 1.2045 9.0795C0.993526 9.29048 0.875 9.57663 0.875 9.875C0.875 10.1734 0.993526 10.4595 1.2045 10.6705C1.41548 10.8815 1.70163 11 2 11H6.5C6.79837 11 7.08452 10.8815 7.2955 10.6705C7.50647 10.4595 7.625 10.1734 7.625 9.875C7.625 9.57663 7.50647 9.29048 7.2955 9.0795C7.08452 8.86853 6.79837 8.75 6.5 8.75ZM13.25 4.25H12.125V1.25C12.125 0.951631 12.0065 0.665483 11.7955 0.454505C11.5845 0.243526 11.2984 0.125 11 0.125C10.7016 0.125 10.4155 0.243526 10.2045 0.454505C9.99353 0.665483 9.875 0.951631 9.875 1.25V4.25H8.75C8.45163 4.25 8.16548 4.36853 7.9545 4.5795C7.74353 4.79048 7.625 5.07663 7.625 5.375C7.625 5.67337 7.74353 5.95952 7.9545 6.1705C8.16548 6.38147 8.45163 6.5 8.75 6.5H13.25C13.5484 6.5 13.8345 6.38147 14.0455 6.1705C14.2565 5.95952 14.375 5.67337 14.375 5.375C14.375 5.07663 14.2565 4.79048 14.0455 4.5795C13.8345 4.36853 13.5484 4.25 13.25 4.25Z"
            fill="black" fill-opacity="0.4" />
    </symbol>

    <symbol id='search' viewBox="0 0 22 22" fill="none">
        <path
            d="M20.7958 19.2041L16.3436 14.75C17.6785 13.0104 18.3018 10.8282 18.0869 8.64607C17.872 6.4639 16.8352 4.44516 15.1866 2.99937C13.538 1.55357 11.4013 0.788988 9.20972 0.860713C7.01817 0.932437 4.93595 1.8351 3.38546 3.38559C1.83497 4.93608 0.932307 7.0183 0.860583 9.20985C0.788858 11.4014 1.55344 13.5382 2.99924 15.1867C4.44503 16.8353 6.46377 17.8722 8.64594 18.087C10.8281 18.3019 13.0103 17.6787 14.7499 16.3438L19.2058 20.8006C19.3105 20.9053 19.4347 20.9883 19.5714 21.0449C19.7081 21.1016 19.8547 21.1307 20.0027 21.1307C20.1507 21.1307 20.2972 21.1016 20.434 21.0449C20.5707 20.9883 20.6949 20.9053 20.7996 20.8006C20.9042 20.696 20.9872 20.5717 21.0439 20.435C21.1005 20.2983 21.1296 20.1517 21.1296 20.0037C21.1296 19.8558 21.1005 19.7092 21.0439 19.5725C20.9872 19.4358 20.9042 19.3115 20.7996 19.2069L20.7958 19.2041ZM3.12487 9.5C3.12487 8.23915 3.49876 7.0066 4.19925 5.95824C4.89975 4.90988 5.89539 4.09278 7.06026 3.61027C8.22514 3.12776 9.50694 3.00151 10.7436 3.2475C11.9802 3.49348 13.1161 4.10064 14.0077 4.9922C14.8992 5.88376 15.5064 7.01967 15.7524 8.2563C15.9984 9.49293 15.8721 10.7747 15.3896 11.9396C14.9071 13.1045 14.09 14.1001 13.0416 14.8006C11.9933 15.5011 10.7607 15.875 9.49987 15.875C7.80965 15.8733 6.18915 15.2011 4.99398 14.0059C3.79882 12.8107 3.12661 11.1902 3.12487 9.5Z"
            fill="black" fill-opacity="0.4" />
    </symbol>

    <symbol id='arrow-up' viewBox="0 0 12 8" fill="none">
        <path
            d="M0.469402 5.96945L5.4694 0.969449C5.53908 0.899529 5.62187 0.844052 5.71304 0.806198C5.8042 0.768344 5.90194 0.748858 6.00065 0.748858C6.09936 0.748858 6.1971 0.768344 6.28827 0.806198C6.37943 0.844052 6.46222 0.899529 6.5319 0.969449L11.5319 5.96945C11.6728 6.11034 11.752 6.30144 11.752 6.5007C11.752 6.69996 11.6728 6.89105 11.5319 7.03195C11.391 7.17284 11.1999 7.252 11.0007 7.252C10.8014 7.252 10.6103 7.17284 10.4694 7.03195L6.00003 2.56257L1.53065 7.03257C1.38976 7.17347 1.19866 7.25263 0.999403 7.25263C0.800145 7.25263 0.609049 7.17347 0.468153 7.03257C0.327257 6.89168 0.2481 6.70058 0.2481 6.50132C0.2481 6.30207 0.327257 6.11097 0.468153 5.97007L0.469402 5.96945Z"
            fill="black" />
    </symbol>

    <symbol id='arrow-right' viewBox="0 0 7 12" fill="none">
        <path
            d="M1.53073 0.469402L6.53073 5.4694C6.60065 5.53908 6.65613 5.62187 6.69399 5.71304C6.73184 5.8042 6.75133 5.90194 6.75133 6.00065C6.75133 6.09936 6.73184 6.1971 6.69399 6.28827C6.65613 6.37943 6.60065 6.46222 6.53073 6.5319L1.53073 11.5319C1.38984 11.6728 1.19874 11.752 0.999484 11.752C0.800227 11.752 0.609131 11.6728 0.468235 11.5319C0.327338 11.391 0.248184 11.1999 0.248184 11.0007C0.248184 10.8014 0.327338 10.6103 0.468235 10.4694L4.93761 6.00003L0.46761 1.53065C0.326714 1.38976 0.247559 1.19866 0.247559 0.999403C0.247559 0.800145 0.326714 0.609049 0.46761 0.468153C0.608506 0.327257 0.799603 0.2481 0.99886 0.2481C1.19812 0.2481 1.38921 0.327257 1.53011 0.468153L1.53073 0.469402Z"
            fill="black" fill-opacity="0.6" />
    </symbol>

    <symbol id='close-modal' viewBox="0 0 40 40">
        <rect x="12.1251" y="10.8076" width="24" height="2" transform="rotate(45 12.1251 10.8076)" />
        <rect x="29.2891" y="12.2219" width="24" height="2" transform="rotate(135 29.2891 12.2219)" />
    </symbol>
</svg>